<svg xmlns="http://www.w3.org/2000/svg" width="260.054" height="80.171" viewBox="0 0 260.054 80.171">
  <g id="Group_905" data-name="Group 905" transform="translate(823.837 -1143.294)">
    <g id="Group_859" data-name="Group 859" transform="translate(-768.315 1143.294)">
      <g id="Group_260" data-name="Group 260" transform="translate(51.112 0)">
        <g id="Group_259" data-name="Group 259">
          <path id="Path_19940" data-name="Path 19940" d="M12747.371,3864.44c-21.131-3.417-16.811-36.873-9.133-49.935,3.439-5.854,7.752-11.153,11.078-17.077.113-.2,3.012-6.906,3.291-6.952-.238.039-.982.26.691,2.225,3.8,4.46,6.73,11.331,9.432,16.547a82.466,82.466,0,0,1,8.191,22.184c1.762,9.161,1.732,19.216-5.072,26.371-5.865,6.166-13.992,8.419-22.2,7.012-1.049-.18-1.521,1.368-.447,1.635a24.732,24.732,0,0,0,30.025-19.677c1.668-9.717-1.2-20.251-4.857-29.159-4.021-9.788-13.189-19.556-14.969-29.869-.115-.657-1.041-.546-1.215,0-5.062,15.766-19.6,26.776-21.441,43.783-1.359,12.554.863,32.294,16.189,34.509C12747.965,3866.187,12748.424,3864.611,12747.371,3864.44Z" transform="translate(-12730.405 -3787.293)" fill="#88929a"/>
        </g>
      </g>
      <g id="Group_262" data-name="Group 262" transform="translate(70.301 44.338)">
        <g id="Group_261" data-name="Group 261">
          <path id="Path_19941" data-name="Path 19941" d="M13140.457,4723.886c-.742,11.335-.289,22.691-.73,34.032a.776.776,0,0,0,1.551,0c-.238-11.344.416-22.687-.123-34.032A.349.349,0,0,0,13140.457,4723.886Z" transform="translate(-13139.726 -4723.549)" fill="#88929a"/>
        </g>
      </g>
      <g id="Group_264" data-name="Group 264" transform="translate(9.81 23.77)">
        <g id="Group_263" data-name="Group 263">
          <path id="Path_19942" data-name="Path 19942" d="M11906.588,4338.406c-12.5,1.9-23.795-2.773-31.963-12.353-6.254-7.337-9.213-16.3-13.346-24.836a49.915,49.915,0,0,0-5.734-9.433c-.389-.487-3.314-3.542-3.3-3.6.3-1.482,6.846-1.7,7.834-1.775,12.283-.89,23.766,1.484,33.027,9.958a.678.678,0,0,0,.957-.959c-11.625-12.029-28.879-11.854-44.221-8.958a.572.572,0,0,0-.252.952c11.787,10.024,13.535,27.056,23.08,38.878,8.221,10.186,21.059,16.777,34.2,13.133C11907.531,4339.231,11907.236,4338.308,11906.588,4338.406Z" transform="translate(-11849.422 -4284.814)" fill="#88929a"/>
        </g>
      </g>
      <g id="Group_266" data-name="Group 266" transform="translate(41.689 52.638)">
        <g id="Group_265" data-name="Group 265">
          <path id="Path_19943" data-name="Path 19943" d="M12529.427,4900.838c4.451,9.5,7.713,18.951,18.381,22.917.549.2.939-.7.4-.957-9.686-4.562-13.8-13.013-18.482-22.137C12529.626,4900.46,12529.333,4900.637,12529.427,4900.838Z" transform="translate(-12529.408 -4900.573)" fill="#88929a"/>
        </g>
      </g>
      <g id="Group_268" data-name="Group 268" transform="translate(79.268 19.898)">
        <g id="Group_267" data-name="Group 267">
          <path id="Path_19944" data-name="Path 19944" d="M13342.717,4220.744c7.373-10.492,19.7-16.417,32.51-16.771,4.811-.133,2.406.886.521,3.812a45.339,45.339,0,0,0-4.379,9.458c-3,8.446-4.586,17.489-9.686,25.043-7,10.365-17.9,16.008-30.039,17.615-.848.112-.9,1.435,0,1.375a41.643,41.643,0,0,0,30.8-17.133c8.889-12.447,8.049-29.3,18.867-40.618a.773.773,0,0,0-.541-1.305c-14.779.928-31.346,3.687-39.053,17.938A.581.581,0,0,0,13342.717,4220.744Z" transform="translate(-13330.988 -4202.218)" fill="#88929a"/>
        </g>
      </g>
      <g id="Group_270" data-name="Group 270" transform="translate(84.412 47.192)">
        <g id="Group_269" data-name="Group 269">
          <path id="Path_19945" data-name="Path 19945" d="M13440.994,4812.191a41.791,41.791,0,0,0,11.295-10.5c3.92-5.226,6-11.448,9.605-16.855.17-.252-.227-.567-.426-.329-3.467,4.183-5.307,9.273-8.2,13.829a59.87,59.87,0,0,1-12.494,13.569C13440.611,4812.038,13440.82,4812.3,13440.994,4812.191Z" transform="translate(-13440.714 -4784.42)" fill="#88929a"/>
        </g>
      </g>
      <g id="Group_272" data-name="Group 272" transform="translate(8.788 56.255)">
        <g id="Group_271" data-name="Group 271">
          <path id="Path_19946" data-name="Path 19946" d="M11828.94,5001.115c5.318-8.747,8.92-17.684,18.373-22.859.324-.178.039-.626-.285-.486-9.348,4.077-15.621,13.661-19.346,22.815C11827.382,5001.325,11828.55,5001.759,11828.94,5001.115Z" transform="translate(-11827.634 -4977.743)" fill="#88929a"/>
        </g>
      </g>
      <g id="Group_274" data-name="Group 274" transform="translate(112.846 56.255)">
        <g id="Group_273" data-name="Group 273">
          <path id="Path_19947" data-name="Path 19947" d="M14066.992,5000.584c-3.725-9.156-9.994-18.738-19.346-22.815-.322-.141-.609.307-.283.485,9.451,5.175,13.053,14.111,18.373,22.859C14066.123,5001.751,14067.3,5001.332,14066.992,5000.584Z" transform="translate(-14047.22 -4977.743)" fill="#88929a"/>
        </g>
      </g>
      <g id="Group_276" data-name="Group 276" transform="translate(15.047 59.821)">
        <g id="Group_275" data-name="Group 275">
          <path id="Path_19948" data-name="Path 19948" d="M11961.43,5072.955c2.576-1.578,3.279-5.931,4.832-8.5a25.707,25.707,0,0,1,10.166-9.817c.523-.271.063-1.039-.461-.787a26.2,26.2,0,0,0-9.842,8.413c-1.854,2.547-5.686,7.323-4.867,10.623A.118.118,0,0,0,11961.43,5072.955Z" transform="translate(-11961.145 -5053.8)" fill="#88929a"/>
        </g>
      </g>
      <g id="Group_278" data-name="Group 278" transform="translate(110.192 59.924)">
        <g id="Group_277" data-name="Group 277">
          <path id="Path_19949" data-name="Path 19949" d="M13990.932,5056.873c7.713,2.847,12.387,11.061,16.037,17.892.279.527,1.068.159.938-.4-1.049-4.39-4.166-8.026-7.086-11.337-2.658-3.015-5.51-6.278-9.65-7.021A.447.447,0,0,0,13990.932,5056.873Z" transform="translate(-13990.619 -5056.003)" fill="#88929a"/>
        </g>
      </g>
      <g id="Group_280" data-name="Group 280" transform="translate(0 71.884)">
        <g id="Group_279" data-name="Group 279">
          <path id="Path_19950" data-name="Path 19950" d="M11642.367,5315.636c2.918,0,2.922-4.536,0-4.536S11639.443,5315.636,11642.367,5315.636Z" transform="translate(-11640.176 -5311.1)" fill="#88929a"/>
        </g>
      </g>
      <g id="Group_282" data-name="Group 282" transform="translate(4.82 61.931)">
        <g id="Group_281" data-name="Group 281">
          <path id="Path_19951" data-name="Path 19951" d="M11745.246,5105.181c3.018,0,3.023-4.691,0-4.691S11742.223,5105.181,11745.246,5105.181Z" transform="translate(-11742.98 -5100.49)" fill="#88929a"/>
        </g>
      </g>
      <g id="Group_284" data-name="Group 284" transform="translate(12.499 52.278)">
        <g id="Group_283" data-name="Group 283">
          <path id="Path_19952" data-name="Path 19952" d="M11909.1,4900.605c3.094,0,3.1-4.806,0-4.806S11906.006,4900.605,11909.1,4900.605Z" transform="translate(-11906.781 -4895.8)" fill="#88929a"/>
        </g>
      </g>
      <g id="Group_286" data-name="Group 286" transform="translate(120.717 51.028)">
        <g id="Group_285" data-name="Group 285">
          <path id="Path_19953" data-name="Path 19953" d="M14219.4,4871.438c-.105-2.351-3.553-2.973-4.215-.57a2.146,2.146,0,1,0,4.215.57Z" transform="translate(-14215.114 -4869.342)" fill="#88929a"/>
        </g>
      </g>
      <g id="Group_288" data-name="Group 288" transform="translate(128.966 59.233)">
        <g id="Group_287" data-name="Group 287">
          <path id="Path_19954" data-name="Path 19954" d="M14393.191,5047.69c2.818,0,2.824-4.38,0-4.38S14390.369,5047.69,14393.191,5047.69Z" transform="translate(-14391.077 -5043.31)" fill="#88929a"/>
        </g>
      </g>
      <g id="Group_290" data-name="Group 290" transform="translate(134.219 69.554)">
        <g id="Group_289" data-name="Group 289">
          <path id="Path_19955" data-name="Path 19955" d="M14505.4,5265.955a2.277,2.277,0,1,0-2.277-2.277A2.312,2.312,0,0,0,14505.4,5265.955Z" transform="translate(-14503.119 -5261.4)" fill="#88929a"/>
        </g>
      </g>
      <g id="Group_292" data-name="Group 292" transform="translate(44.385 10.722)">
        <g id="Group_291" data-name="Group 291">
          <path id="Path_19956" data-name="Path 19956" d="M12589.335,4020.806a2.4,2.4,0,1,0-2.4-2.4A2.442,2.442,0,0,0,12589.335,4020.806Z" transform="translate(-12586.931 -4016)" fill="#88929a"/>
        </g>
      </g>
      <g id="Group_294" data-name="Group 294" transform="translate(93.382 10.967)">
        <g id="Group_293" data-name="Group 293">
          <path id="Path_19957" data-name="Path 19957" d="M13635.916,4021.665c-.084-.045-.17-.091-.254-.138a2.462,2.462,0,0,0-3.3.867,2.431,2.431,0,0,0,.863,3.3c.09.041.176.081.262.122a2.476,2.476,0,0,0,3.291-.863A2.432,2.432,0,0,0,13635.916,4021.665Z" transform="translate(-13632.05 -4021.22)" fill="#88929a"/>
        </g>
      </g>
      <g id="Group_296" data-name="Group 296" transform="translate(10.626 25.688)">
        <g id="Group_295" data-name="Group 295">
          <path id="Path_19958" data-name="Path 19958" d="M11867.127,4332.385c4.387,1.507,8.4,2.954,12.236,5.662,3.533,2.5,6.768,5.366,10.5,7.571.33.194.744-.3.424-.548-6.84-5.3-13.865-12.954-23.047-13.542C11866.729,4331.5,11866.684,4332.233,11867.127,4332.385Z" transform="translate(-11866.823 -4331.527)" fill="#88929a"/>
        </g>
      </g>
      <g id="Group_298" data-name="Group 298" transform="translate(12.091 26.78)">
        <g id="Group_297" data-name="Group 297">
          <path id="Path_19959" data-name="Path 19959" d="M11898.154,4354.926c2.26,2.748,5.7,4.616,8.234,7.177a64.06,64.06,0,0,1,7.336,9.326c.154.228.594.091.477-.2a32.308,32.308,0,0,0-6.316-9.881c-2.377-2.6-5.9-6.125-9.465-6.874A.274.274,0,0,0,11898.154,4354.926Z" transform="translate(-11898.083 -4354.465)" fill="#88929a"/>
        </g>
      </g>
      <g id="Group_300" data-name="Group 300" transform="translate(13.482 25.449)">
        <g id="Group_299" data-name="Group 299">
          <path id="Path_19960" data-name="Path 19960" d="M11928,4327.935c7.471-.56,13.857,2.018,20.809,4.236a.37.37,0,0,0,.283-.673c-6.539-3.288-13.834-5.774-21.158-4.058C11927.664,4327.5,11927.717,4327.957,11928,4327.935Z" transform="translate(-11927.758 -4326.881)" fill="#88929a"/>
        </g>
      </g>
      <g id="Group_302" data-name="Group 302" transform="translate(107.876 20.948)">
        <g id="Group_301" data-name="Group 301">
          <path id="Path_19961" data-name="Path 19961" d="M13959.783,4231.084c-7.375,1.322-14.5,8.094-18.516,14.07-.256.379.346.853.639.493a46.118,46.118,0,0,1,8.629-8.332c3.037-2.18,6.471-3.412,9.629-5.328A.5.5,0,0,0,13959.783,4231.084Z" transform="translate(-13941.206 -4231.075)" fill="#88929a"/>
        </g>
      </g>
      <g id="Group_304" data-name="Group 304" transform="translate(103.483 21.03)">
        <g id="Group_303" data-name="Group 303">
          <path id="Path_19962" data-name="Path 19962" d="M13870.48,4233.1c-7.961-.9-17.633,3.946-22.859,9.742-.3.337.113.981.518.67a51.4,51.4,0,0,1,9.844-6.4c4.115-1.88,8.279-2.274,12.586-3.369C13870.951,4233.648,13870.828,4233.138,13870.48,4233.1Z" transform="translate(-13847.518 -4232.991)" fill="#88929a"/>
        </g>
      </g>
      <g id="Group_306" data-name="Group 306" transform="translate(114.861 21.59)">
        <g id="Group_305" data-name="Group 305">
          <path id="Path_19963" data-name="Path 19963" d="M14101.8,4244.754c-5.35,2.272-9.609,7.785-11.57,13.094-.18.485.559.762.816.343a49.657,49.657,0,0,1,5.2-7.223c1.854-2.083,4.025-3.689,6.053-5.575C14102.666,4245.052,14102.2,4244.587,14101.8,4244.754Z" transform="translate(-14090.206 -4244.719)" fill="#88929a"/>
        </g>
      </g>
      <g id="Group_308" data-name="Group 308" transform="translate(63.035 2.189)">
        <g id="Group_307" data-name="Group 307">
          <path id="Path_19964" data-name="Path 19964" d="M12994.645,3834.135c-1.8,9.338-7.443,16.935-9.893,25.954-.141.514.639.88.887.373,3.914-8.076,9.311-17.079,9.426-26.271C12995.066,3833.958,12994.691,3833.894,12994.645,3834.135Z" transform="translate(-12984.735 -3833.983)" fill="#88929a"/>
        </g>
      </g>
      <g id="Group_310" data-name="Group 310" transform="translate(71.068 3.245)">
        <g id="Group_309" data-name="Group 309">
          <path id="Path_19965" data-name="Path 19965" d="M13158.062,3856.679a96.824,96.824,0,0,0-1.354,30.213.407.407,0,0,0,.813,0c.578-10,.756-20.135.98-30.153A.225.225,0,0,0,13158.062,3856.679Z" transform="translate(-13156.084 -3856.52)" fill="#88929a"/>
        </g>
      </g>
      <g id="Group_312" data-name="Group 312" transform="translate(72.718 1.93)">
        <g id="Group_311" data-name="Group 311">
          <path id="Path_19966" data-name="Path 19966" d="M13191.313,3828.724c-.371,8.6,2.357,18.429,6.5,25.933a.4.4,0,0,0,.727-.306c-1.311-4.249-2.953-8.36-4.033-12.683-1.074-4.3-1.619-8.71-2.68-13.014A.263.263,0,0,0,13191.313,3828.724Z" transform="translate(-13191.278 -3828.468)" fill="#88929a"/>
        </g>
      </g>
      <g id="Group_314" data-name="Group 314" transform="translate(72.939 3.353)">
        <g id="Group_313" data-name="Group 313">
          <path id="Path_19967" data-name="Path 19967" d="M13196,3859.054c.125,3.383,1.838,6.624,3.207,9.679a67.968,67.968,0,0,0,6.283,11.378.378.378,0,0,0,.652-.381c-1.613-3.768-3.434-7.442-5.111-11.182-1.439-3.207-2.436-6.881-4.617-9.666C13196.277,3858.715,13195.988,3858.858,13196,3859.054Z" transform="translate(-13195.996 -3858.808)" fill="#88929a"/>
        </g>
      </g>
    </g>
    <line id="Line_7" data-name="Line 7" x2="258.054" transform="translate(-822.837 1222.464)" fill="none" stroke="#88929a" stroke-linecap="round" stroke-linejoin="round" stroke-miterlimit="10" stroke-width="2"/>
  </g>
</svg>
