<?xml version="1.0" encoding="UTF-8"?>
<!DOCTYPE svg PUBLIC "-//W3C//DTD SVG 1.1//EN" "http://www.w3.org/Graphics/SVG/1.1/DTD/svg11.dtd">
<!-- Creator: CorelDRAW -->
<svg xmlns="http://www.w3.org/2000/svg" xml:space="preserve" width="22.3721mm" height="23.1806mm" version="1.1" style="shape-rendering:geometricPrecision; text-rendering:geometricPrecision; image-rendering:optimizeQuality; fill-rule:evenodd; clip-rule:evenodd"
viewBox="0 0 164.62 170.56"
 xmlns:xlink="http://www.w3.org/1999/xlink"
 xmlns:xodm="http://www.corel.com/coreldraw/odm/2003">
 <defs>
  <style type="text/css">
   <![CDATA[
    .fil0 {fill:#FFEFEF;fill-rule:nonzero}
   ]]>
  </style>
 </defs>
 <g id="Layer_x0020_1">
  <metadata id="CorelCorpID_0Corel-Layer"/>
  <path id="Path_12094" class="fil0" d="M164.44 6.58c0.78,9.06 -0.93,18.9 -7.29,25.4 -5.96,6.1 -14.77,8.18 -22.95,10.57 -14.56,4.28 -28.53,10.47 -41.51,18.33 -11.02,6.69 -21.63,14.97 -27.6,26.39 -6.57,12.56 -6.78,27.36 -8.73,41.4 -1.96,14.05 -6.73,29.16 -18.78,36.63 -9.97,6.18 -22.56,5.68 -34.24,4.61 -1.11,-0.1 -2.24,-0.2 -3.35,-0.39l0 -169.52 163.48 -0c0.46,2.17 0.79,4.38 0.96,6.58l-0 0z" data-name="Path 12094"/>
 </g>
</svg>
