<svg xmlns="http://www.w3.org/2000/svg" xml:space="preserve" width="19.6978mm" height="20.4106mm" version="1.1" viewBox="0 0 102.06 105.75">
 <g id="Layer_x0020_1">
  <metadata id="CorelCorpID_0Corel-Layer"/>
  <path id="Path_12094"  d="M0.11 101.67c-0.48,-5.62 0.58,-11.72 4.52,-15.75 3.69,-3.78 9.16,-5.06 14.23,-6.55 9.02,-2.66 17.7,-6.5 25.73,-11.36 6.83,-4.14 13.41,-9.28 17.11,-16.36 4.08,-7.8 4.2,-16.95 5.41,-25.66 1.21,-8.71 4.17,-18.08 11.64,-22.72 6.18,-3.84 13.98,-3.52 21.22,-2.86 0.69,0.06 1.39,0.13 2.08,0.25l0 105.1 -101.35 0c-0.28,-1.35 -0.49,-2.72 -0.6,-4.08l-0 0z" data-name="Path 12094" />
 </g>
</svg>
