<?xml version="1.0" encoding="UTF-8"?>
<!DOCTYPE svg PUBLIC "-//W3C//DTD SVG 1.1//EN" "http://www.w3.org/Graphics/SVG/1.1/DTD/svg11.dtd">
<!-- Creator: CorelDRAW -->
<svg xmlns="http://www.w3.org/2000/svg" xml:space="preserve" width="19.6978mm" height="20.4106mm" version="1.1" style="shape-rendering:geometricPrecision; text-rendering:geometricPrecision; image-rendering:optimizeQuality; fill-rule:evenodd; clip-rule:evenodd"
viewBox="0 0 103.67 107.42"
 xmlns:xlink="http://www.w3.org/1999/xlink"
 xmlns:xodm="http://www.corel.com/coreldraw/odm/2003">
 <defs>
  <style type="text/css">
   <![CDATA[
    .fil0 {fill:#FFEFEF;fill-rule:nonzero}
   ]]>
  </style>
 </defs>
 <g id="Layer_x0020_1">
  <metadata id="CorelCorpID_0Corel-Layer"/>
  <path id="Path_12094" class="fil0" d="M0.11 103.27c-0.48,-5.71 0.59,-11.9 4.59,-16 3.75,-3.84 9.3,-5.14 14.45,-6.66 9.16,-2.7 17.98,-6.6 26.14,-11.54 6.94,-4.21 13.62,-9.43 17.38,-16.62 4.14,-7.92 4.27,-17.22 5.5,-26.07 1.23,-8.84 4.23,-18.37 11.83,-23.07 6.28,-3.9 14.2,-3.58 21.56,-2.9 0.7,0.07 1.41,0.13 2.11,0.25l0 106.75 -102.95 0c-0.29,-1.37 -0.5,-2.76 -0.61,-4.15l-0 0z" data-name="Path 12094"/>
 </g>
</svg>
