<svg id="Group_45507" data-name="Group 45507" xmlns="http://www.w3.org/2000/svg" width="265.715" height="250.482" viewBox="0 0 265.715 250.482">
  <path id="Path_32682" data-name="Path 32682" d="M13788.9,4067.062c-24.045-39.834-19.766-93.9,7.641-131.5s75.436-58.076,121.881-55.283c57.611,3.465,114.066,47.19,119.943,104.6,3.434,33.58-10.373,67.755-33.637,92.216C13950.113,4134.536,13833.879,4141.563,13788.9,4067.062Z" transform="translate(-13773.171 -3880.031)" fill="#fff5ec"/>
  <path id="Path_32683" data-name="Path 32683" d="M14489.9,4695.23a17.626,17.626,0,0,1-10.854-29.71,24.992,24.992,0,0,1,21.258-42.766,16.465,16.465,0,0,1,29.1-10.243,12.739,12.739,0,0,1,24.895-4.488,13.549,13.549,0,0,1,24.674-9.284,22.051,22.051,0,0,1,27.92,25.672,17.955,17.955,0,0,1,12.576,32.771,13.351,13.351,0,0,1,2.6,26.267c10.7,8.54,11.875,26.575,2.355,36.428a24.419,24.419,0,0,1-37.01,20.346,13.646,13.646,0,0,1-26.652-4.915,11.851,11.851,0,0,1-23.426-.969c-5.023,4.771-14.039,5.409-19.131.342-3.684-3.675-2.08-9.153-5.033-12.782-3.807-4.683-11.574-3.554-16.428-7.638C14495.021,4712.809,14486.412,4694.856,14489.9,4695.23Z" transform="translate(-14430.653 -4551.216)" fill="#fefefe"/>
  <path id="Path_32684" data-name="Path 32684" d="M15045.753,4828c4.389,13.684,11.867,27.351,22.061,37.607,8.811,8.868,21.547,12.41,13.15,28.143-3.549,6.66-10.014,11.276-16.717,14.736-5.771,2.979-12.09,5.321-18.592,5.142-16.826-.452-19.242-14.247-27.859-24.8-9.17-11.226-23.191-18.131-36.156-23.9-15.557-6.921-30.826-13.51-43.293-25.42-12.084-11.544-20.119-27.6-26.584-42.883.326-2.16,2-1.485,2.324-3.641q14.42,10.279,28.838,20.56c-11.24-8.016-21.855-19.446-27.52-32.171-5.254-11.791-12.756-23.958-12.383-37.284.082-2.86,9.168,3.216,9.416,3.4,4.615,3.377,8.512,9.991,12.236,14.362q12.2,14.318,24.416,28.636c-13.6-18.085-22.727-38.363-30.854-59.49-1.5-3.893-2.281-9.465,1.516-11.193,3.623-1.648,7.25,2.144,9.439,5.463q18.686,28.381,37.359,56.756a108.535,108.535,0,0,1-23.27-35.225c-2.129-5.126-10.857-38.344-.867-34.823,4.895,1.722,12.525,16.418,15.721,20.645q9.346,12.352,18.279,25.011c9.518,13.51,16.643,26.875,32.037,34.291,1.947.939,4.127,1.8,6.23,1.267,6.064-1.536-3.406-33.223-4.508-38.927-.768-3.967-1.066-9.034,2.438-11.038,3.811-2.179,8.484,1.559,10.193,5.6,3.732,8.82,8.416,16.417,12.492,25.046C15043.589,4791.459,15039.989,4810.048,15045.753,4828Z" transform="translate(-14837.043 -4663.159)" fill="#e3b9bf"/>
  <path id="Path_32685" data-name="Path 32685" d="M15320.925,6686.316a6.718,6.718,0,1,1,10.34-2.839c1.285-3.49,6.18-4.6,9.389-2.716s4.711,5.849,4.666,9.566-1.383,7.282-2.691,10.757a9.734,9.734,0,0,1-10.588,14.619c.166-1.024.326-2.043.492-3.067a9.868,9.868,0,0,1-10.381,8.188c-4.945-.5-8.352-5.016-8.633-9.747-3.424,4.139-10.578,3.923-13.834-.521-2.736-3.73-.871-8.389-.334-12.512.775-5.918.441-13.248,6.395-16.634A11.014,11.014,0,0,1,15320.925,6686.316Z" transform="translate(-15209.188 -6511.178)" fill="#fefefe"/>
  <path id="Path_32686" data-name="Path 32686" d="M16817.619,6054.349a6.723,6.723,0,1,1,10.348-2.835c1.277-3.492,6.2-4.6,9.4-2.718,3.188,1.887,4.7,5.852,4.656,9.562s-1.387,7.284-2.689,10.762a9.734,9.734,0,0,1-10.6,14.614c.174-1.02.33-2.041.506-3.065a9.87,9.87,0,0,1-10.387,8.191c-4.939-.5-8.355-5.016-8.631-9.745-3.426,4.137-10.578,3.917-13.838-.523-2.729-3.735-.873-8.391-.332-12.509.781-5.923.441-13.249,6.393-16.639A11,11,0,0,1,16817.619,6054.349Z" transform="translate(-16618.504 -5916.109)" fill="#fefefe"/>
  <g id="Group_45289" data-name="Group 45289" transform="translate(35.583 41.617)">
    <path id="Path_32687" data-name="Path 32687" d="M17144.4,4819.857h35.666V4809.49H17144.4Z" transform="translate(-16983.145 -4796.839)" fill="#d8b799"/>
    <path id="Path_32688" data-name="Path 32688" d="M17361,4628.483h10.367v-35.672H17361Z" transform="translate(-17187.092 -4592.811)" fill="#d8b799"/>
    <path id="Path_32689" data-name="Path 32689" d="M14382.6,6986.01h23.021v-6.689H14382.6Z" transform="translate(-14382.598 -6839.98)" fill="#d8b799"/>
    <path id="Path_32690" data-name="Path 32690" d="M14522.5,6862.489h6.7v-23.019h-6.7Z" transform="translate(-14514.33 -6708.296)" fill="#d8b799"/>
  </g>
</svg>
