<svg xmlns="http://www.w3.org/2000/svg" width="108.928" height="133.729" viewBox="0 0 108.928 133.729">
  <g id="Group_907" data-name="Group 907" transform="translate(-11142.982 -9357.8)">
    <g id="Group_244" data-name="Group 244" transform="translate(11142.982 9357.8)">
      <g id="Group_243" data-name="Group 243" transform="translate(13.663 18.873)">
        <path id="Path_19922" data-name="Path 19922" d="M11398.609,9824.892c-.107-2.053-.156-4.121-.145-6.193a116.055,116.055,0,0,1,20.154-64.039c14.648-21.139,35.131-33.336,58.432-43.023a.764.764,0,0,0-.41-1.471c-52.4,10.967-82.045,64.5-78.254,114.727C11398.4,9825.032,11398.621,9825.038,11398.609,9824.892Z" transform="translate(-11398.063 -9710.143)" fill="current"/>
      </g>
      <path id="Path_19923" data-name="Path 19923" d="M11157.836,10504.958c.393-3.461-1.734-6.641-3.627-9.562-8.43-13.051-13.92-29.158-9.863-44.156,6.1,3.133,9.863,9.5,12.135,15.961,2.857,8.119,3.223,16.83,2.857,25.422C11159.186,10496.052,11157.836,10504.958,11157.836,10504.958Z" transform="translate(-11142.981 -10392.671)" fill="current"/>
      <path id="Path_19924" data-name="Path 19924" d="M11413.7,10817.889c3.652-9.049,10.057-17.2,18.705-21.729,5.133-2.687,10.852-4.02,16.516-5.277a34.148,34.148,0,0,1,8.279-1.139c-4.369,11.689-15.07,20.105-26.682,24.668-5.689,2.236-11.785,3.742-16.686,7.4Z" transform="translate(-11399.203 -10713.039)" fill="current"/>
      <path id="Path_19925" data-name="Path 19925" d="M11521.095,9960.178a5.9,5.9,0,0,0-.084-2.826c-1.416-7.152-3.924-14.07-5.008-21.287s-.572-15.049,3.566-21.055c5.984,7.979,10.09,18.34,7.273,27.91-.873,2.965-2.367,5.711-3.35,8.646a26.381,26.381,0,0,0-1.361,7.762Z" transform="translate(-11495.556 -9885.165)" fill="current"/>
      <path id="Path_19926" data-name="Path 19926" d="M11644.3,10279.3a61.846,61.846,0,0,1,8.23-9.893c7.762-7.027,18.469-9.564,28.676-11.859-2.332,7.832-8.115,14.371-15.123,18.564s-15.162,6.207-23.312,6.826Z" transform="translate(-11616 -10209.357)" fill="current"/>
      <path id="Path_19927" data-name="Path 19927" d="M11906.068,9530.388c2.387-2.629,2.248-6.738.977-10.045s-3.484-6.176-4.965-9.389a23.444,23.444,0,0,1,.283-19.824,31.133,31.133,0,0,1,9.918,9.678c2.385,4,3.459,8.941,2.145,13.406-1.271,4.375-4.6,7.846-6.406,12.027Z" transform="translate(-11859.471 -9483.986)" fill="current"/>
      <path id="Path_19928" data-name="Path 19928" d="M12110.7,9956.738c3.584-2.652,8.236-3.43,12.689-3.4s8.883.758,13.342.807a42.766,42.766,0,0,0,21.082-5.344,14.532,14.532,0,0,1-5.283-1.061,42.758,42.758,0,0,0-37.264,6.23Z" transform="translate(-12058.863 -9914.415)" fill="current"/>
      <path id="Path_19929" data-name="Path 19929" d="M12394.42,9568.042c3.82-5.023,7.75-10.146,13.033-13.6,7.967-5.207,17.945-5.975,27.453-6.582-.693,4.537-4.488,7.941-8.369,10.408a51.761,51.761,0,0,1-22.861,7.777c-3.639.332-7.441.307-10.742,1.861Z" transform="translate(-12325.979 -9537.681)" fill="current"/>
      <path id="Path_19930" data-name="Path 19930" d="M12289.2,9392.486c4.158-3.9,5.225-9.967,7.43-15.223a34.779,34.779,0,0,1,21.391-19.461c1.037,4.174-.379,8.662-2.8,12.213s-5.791,6.35-9.111,9.094q-6.853,5.675-13.709,11.352Z" transform="translate(-12227.808 -9357.803)" fill="current"/>
    </g>
    <g id="Group_252" data-name="Group 252" transform="translate(11146.294 9373.479)">
      <g id="Group_245" data-name="Group 245" transform="translate(14.287 67.526)">
        <path id="Path_19931" data-name="Path 19931" d="M11472.234,10931.426c4.936-4.2,9.811-8.408,15.359-11.764,5.02-3.037,10.395-5.133,15.656-7.67.426-.2.119-.83-.314-.736-11.7,2.531-23.633,10.49-31.268,19.6A.4.4,0,0,0,11472.234,10931.426Z" transform="translate(-11471.556 -10911.246)" fill="#fff"/>
      </g>
      <g id="Group_246" data-name="Group 246" transform="translate(0 51.191)">
        <path id="Path_19932" data-name="Path 19932" d="M11204.842,10606.584c2.295,8.664,5.766,17.5,9.068,25.826a.442.442,0,0,0,.852-.23c-1.855-8.656-4.967-18.111-9.465-25.789A.251.251,0,0,0,11204.842,10606.584Z" transform="translate(-11204.832 -10606.271)" fill="#fff"/>
      </g>
      <g id="Group_247" data-name="Group 247" transform="translate(31.665 42.545)">
        <path id="Path_19933" data-name="Path 19933" d="M11796.078,10453.982c6.309-3.844,12.979-6.182,19.916-8.574a.28.28,0,0,0-.146-.541c-7.139,1.494-13.773,5.043-19.83,9.008A.062.062,0,1,0,11796.078,10453.982Z" transform="translate(-11795.986 -10444.858)" fill="#fff"/>
      </g>
      <g id="Group_248" data-name="Group 248" transform="translate(22.532 27.531)">
        <path id="Path_19934" data-name="Path 19934" d="M11626.881,10182.323a51.1,51.1,0,0,0-.865-17.584.268.268,0,0,0-.523.072c.338,5.832.488,11.672.8,17.512A.3.3,0,0,0,11626.881,10182.323Z" transform="translate(-11625.492 -10164.552)" fill="#fff"/>
      </g>
      <g id="Group_249" data-name="Group 249" transform="translate(42.509 0.331)">
        <path id="Path_19935" data-name="Path 19935" d="M11998.46,9657.242c1.09,6.418,3.324,12.418,3.789,18.977a.176.176,0,0,0,.352,0,44.054,44.054,0,0,0-3.357-19.187A.406.406,0,0,0,11998.46,9657.242Z" transform="translate(-11998.453 -9656.752)" fill="#fff"/>
      </g>
      <g id="Group_250" data-name="Group 250" transform="translate(62.419 18.549)">
        <path id="Path_19936" data-name="Path 19936" d="M12370.4,9998.848a148.313,148.313,0,0,1,15.723-1.193.3.3,0,0,0,0-.6c-5.441-.578-10.539.207-15.83,1.4C12370.033,9998.516,12370.148,9998.891,12370.4,9998.848Z" transform="translate(-12370.146 -9996.862)" fill="#fff"/>
      </g>
      <g id="Group_251" data-name="Group 251" transform="translate(71.647 0)">
        <path id="Path_19937" data-name="Path 19937" d="M12542.867,9660.594c7.189-3.113,14.186-6.551,21.457-9.525a.251.251,0,0,0-.133-.484c-7.453,1.756-15.424,4.936-21.619,9.5A.3.3,0,0,0,12542.867,9660.594Z" transform="translate(-12542.432 -9650.575)" fill="#fff"/>
      </g>
    </g>
  </g>
</svg>
