<svg xmlns="http://www.w3.org/2000/svg" width="108.928" height="133.729" viewBox="0 0 108.928 133.729">
  <g id="Group_908" data-name="Group 908" transform="translate(0 0)">
    <g id="Group_244" data-name="Group 244">
      <g id="Group_243" data-name="Group 243" transform="translate(15.748 18.873)">
        <path id="Path_19922" data-name="Path 19922" d="M11477.031,9824.894q.164-3.083.146-6.2a116.075,116.075,0,0,0-20.156-64.039c-14.648-21.137-35.131-33.336-58.432-43.024a.762.762,0,0,1,.41-1.468c52.406,10.966,82.045,64.5,78.254,114.727C11477.244,9825.031,11477.02,9825.04,11477.031,9824.894Z" transform="translate(-11398.063 -9710.144)" fill="current"/>
      </g>
      <path id="Path_19923" data-name="Path 19923" d="M11144.6,10504.957c-.393-3.459,1.736-6.639,3.629-9.562,8.428-13.051,13.918-29.158,9.863-44.154-6.1,3.133-9.863,9.5-12.135,15.959-2.857,8.119-3.225,16.832-2.857,25.424C11143.252,10496.051,11144.6,10504.957,11144.6,10504.957Z" transform="translate(-11050.529 -10392.671)" fill="current"/>
      <path id="Path_19924" data-name="Path 19924" d="M11457.2,10817.889c-3.652-9.049-10.055-17.2-18.7-21.729-5.133-2.687-10.852-4.02-16.516-5.277a34.148,34.148,0,0,0-8.279-1.139c4.369,11.689,15.068,20.107,26.682,24.668,5.688,2.236,11.785,3.744,16.684,7.4Z" transform="translate(-11362.773 -10713.039)" fill="current"/>
      <path id="Path_19925" data-name="Path 19925" d="M11522.168,9960.178a5.886,5.886,0,0,1,.086-2.825c1.414-7.152,3.922-14.07,5-21.289s.572-15.048-3.565-21.054c-5.984,7.979-10.088,18.34-7.273,27.911.874,2.963,2.368,5.71,3.35,8.646a26.28,26.28,0,0,1,1.361,7.761Z" transform="translate(-11438.778 -9885.166)" fill="current"/>
      <path id="Path_19926" data-name="Path 19926" d="M11679.676,10279.3a61.937,61.937,0,0,0-8.232-9.892c-7.758-7.025-18.469-9.564-28.674-11.857,2.33,7.831,8.117,14.371,15.123,18.563,7.01,4.208,15.162,6.208,23.314,6.829Z" transform="translate(-11599.047 -10209.358)" fill="current"/>
      <path id="Path_19927" data-name="Path 19927" d="M11908.945,9530.387c-2.385-2.627-2.246-6.736-.977-10.045,1.285-3.309,3.484-6.176,4.967-9.387a23.456,23.456,0,0,0-.285-19.826,31.147,31.147,0,0,0-9.916,9.678c-2.387,4-3.461,8.941-2.145,13.406,1.27,4.375,4.6,7.846,6.4,12.029Z" transform="translate(-11846.616 -9483.985)" fill="current"/>
      <path id="Path_19928" data-name="Path 19928" d="M12157.813,9956.74c-3.584-2.652-8.236-3.43-12.689-3.405s-8.883.759-13.342.807a42.775,42.775,0,0,1-21.082-5.343,14.583,14.583,0,0,0,5.283-1.062,42.764,42.764,0,0,1,37.264,6.229Z" transform="translate(-12100.72 -9914.416)" fill="current"/>
      <path id="Path_19929" data-name="Path 19929" d="M12433.418,9568.042c-3.822-5.024-7.75-10.147-13.035-13.6-7.967-5.207-17.943-5.975-27.449-6.581.691,4.536,4.486,7.941,8.365,10.407a51.811,51.811,0,0,0,22.861,7.778c3.643.331,7.443.307,10.746,1.861Z" transform="translate(-12392.934 -9537.682)" fill="current"/>
      <path id="Path_19930" data-name="Path 19930" d="M12318.367,9392.486c-4.158-3.9-5.225-9.967-7.428-15.222a34.791,34.791,0,0,0-21.391-19.462c-1.039,4.175.377,8.663,2.8,12.214s5.789,6.35,9.107,9.092q6.855,5.675,13.711,11.353Z" transform="translate(-12270.835 -9357.803)" fill="current"/>
    </g>
    <g id="Group_252" data-name="Group 252" transform="translate(11.905 15.679)">
      <g id="Group_245" data-name="Group 245" transform="translate(47.524 67.527)">
        <path id="Path_19931" data-name="Path 19931" d="M11502.775,10931.426c-4.934-4.2-9.811-8.408-15.357-11.764-5.02-3.035-10.395-5.133-15.656-7.668-.428-.205-.121-.834.314-.738,11.7,2.531,23.631,10.492,31.268,19.6A.4.4,0,0,1,11502.775,10931.426Z" transform="translate(-11471.557 -10911.246)" fill="#fff"/>
      </g>
      <g id="Group_246" data-name="Group 246" transform="translate(83.77 51.191)">
        <path id="Path_19932" data-name="Path 19932" d="M11214.765,10606.584c-2.294,8.664-5.766,17.5-9.07,25.826a.441.441,0,0,1-.85-.23c1.855-8.656,4.966-18.111,9.466-25.789A.25.25,0,0,1,11214.765,10606.584Z" transform="translate(-11204.833 -10606.271)" fill="#fff"/>
      </g>
      <g id="Group_247" data-name="Group 247" transform="translate(41.838 42.545)">
        <path id="Path_19933" data-name="Path 19933" d="M11816.1,10453.984c-6.309-3.844-12.979-6.184-19.914-8.574a.281.281,0,0,1,.145-.543c7.139,1.5,13.773,5.045,19.83,9.009A.062.062,0,1,1,11816.1,10453.984Z" transform="translate(-11795.984 -10444.859)" fill="#fff"/>
      </g>
      <g id="Group_248" data-name="Group 248" transform="translate(69.385 27.531)">
        <path id="Path_19934" data-name="Path 19934" d="M11625.9,10182.323a51.037,51.037,0,0,1,.867-17.582.268.268,0,0,1,.523.071c-.338,5.833-.49,11.672-.8,17.511A.3.3,0,0,1,11625.9,10182.323Z" transform="translate(-11625.491 -10164.553)" fill="#fff"/>
      </g>
      <g id="Group_249" data-name="Group 249" transform="translate(46.991 0.331)">
        <path id="Path_19935" data-name="Path 19935" d="M12002.654,9657.242c-1.09,6.418-3.324,12.418-3.789,18.977a.175.175,0,0,1-.35,0,44.086,44.086,0,0,1,3.355-19.187A.406.406,0,0,1,12002.654,9657.242Z" transform="translate(-11998.453 -9656.753)" fill="#fff"/>
      </g>
      <g id="Group_250" data-name="Group 250" transform="translate(15.036 18.549)">
        <path id="Path_19936" data-name="Path 19936" d="M12386.148,9998.85a148.394,148.394,0,0,0-15.723-1.2.3.3,0,0,1,0-.6c5.441-.578,10.537.207,15.83,1.4C12386.516,9998.516,12386.4,9998.891,12386.148,9998.85Z" transform="translate(-12370.146 -9996.864)" fill="#fff"/>
      </g>
      <g id="Group_251" data-name="Group 251" transform="translate(0 0)">
        <path id="Path_19937" data-name="Path 19937" d="M12564.06,9660.594c-7.189-3.115-14.186-6.551-21.457-9.525a.251.251,0,0,1,.133-.484c7.453,1.756,15.424,4.936,21.619,9.5A.3.3,0,0,1,12564.06,9660.594Z" transform="translate(-12542.432 -9650.575)" fill="#fff"/>
      </g>
    </g>
  </g>
</svg>
