<svg xmlns="http://www.w3.org/2000/svg" width="130.654" height="98.064" viewBox="0 0 130.654 98.064">
  <g id="Group_44804" data-name="Group 44804" transform="translate(0)">
    <path id="Path_661" data-name="Path 661" d="M19492.775,640.146s-5.41,7.809-16.023,4.959C19476.752,645.106,19486.795,636.547,19492.775,640.146Z" transform="translate(-19395.697 -626.69)" fill="current"/>
    <path id="Path_662" data-name="Path 662" d="M18256.658,1152.507s-6.078,3.247-11.4,1.378-14.516-1.367-14.516-1.367S18251.307,1140.277,18256.658,1152.507Z" transform="translate(-18173.922 -1124.624)" fill="current"/>
    <path id="Path_663" data-name="Path 663" d="M18030.408,1731.513s-6.559,6.284-11.9,4.616a24.482,24.482,0,0,0-10.762-.584S18022.33,1722.966,18030.408,1731.513Z" transform="translate(-17955.264 -1694.776)" fill="current"/>
    <path id="Path_664" data-name="Path 664" d="M15339.117,4450.206s-1.473,7.568-11.668,8.074a112.143,112.143,0,0,0-17.566,2.189S15327.137,4444.843,15339.117,4450.206Z" transform="translate(-15309.883 -4362.405)" fill="current"/>
    <path id="Path_665" data-name="Path 665" d="M17578.029,2239.483s-8.984,6.391-22.047-2.713C17555.982,2236.77,17571.166,2227.717,17578.029,2239.483Z" transform="translate(-17512.289 -2189.862)" fill="current"/>
    <path id="Path_666" data-name="Path 666" d="M17343.18,2889.373s-12.383,6.923-19.656.732C17323.523,2890.106,17337.141,2880.867,17343.18,2889.373Z" transform="translate(-17284.354 -2829.503)" fill="current"/>
    <path id="Path_667" data-name="Path 667" d="M17189.922,3569.634s-6.949,3.385-10.48-3.845C17179.441,3565.789,17190.109,3562.961,17189.922,3569.634Z" transform="translate(-17143.074 -3495.706)" fill="current"/>
    <path id="Path_668" data-name="Path 668" d="M16271.172,3837.337s-7.559,3.774-11.379-1.906-8.711-4.811-8.711-4.811S16264.992,3828.9,16271.172,3837.337Z" transform="translate(-16232.775 -3755.829)" fill="current"/>
    <path id="Path_669" data-name="Path 669" d="M20578.178,342.97s-4.3,7.017-.621,14.028C20577.557,357,20583.26,349.855,20578.178,342.97Z" transform="translate(-20473.637 -336.162)" fill="current"/>
    <path id="Path_670" data-name="Path 670" d="M19813.137,1147.55s-1.645,4.877,3.523,10.8C19816.66,1158.345,19819.926,1151.594,19813.137,1147.55Z" transform="translate(-19725.299 -1125.091)" fill="current"/>
    <path id="Path_671" data-name="Path 671" d="M19334.842,1613.53a18.584,18.584,0,0,0,1.828,16.841S19344.076,1619.918,19334.842,1613.53Z" transform="translate(-19255.336 -1582.007)" fill="current"/>
    <path id="Path_672" data-name="Path 672" d="M18872.848,2223.42s-2.5,4.473,1.621,9.084a7.946,7.946,0,0,1,.949,9.478S18885.563,2229.449,18872.848,2223.42Z" transform="translate(-18802.805 -2180.033)" fill="current"/>
    <path id="Path_673" data-name="Path 673" d="M18456.426,2857.64s-2.2,5.93,2.063,7.79C18458.488,2865.43,18462.234,2859.3,18456.426,2857.64Z" transform="translate(-18394.66 -2801.916)" fill="current"/>
    <path id="Path_674" data-name="Path 674" d="M17983.686,3399.22s-5.176,11.926,1.746,21.36C17985.432,3420.58,17992.658,3410.751,17983.686,3399.22Z" transform="translate(-17929.852 -3332.962)" fill="current"/>
    <path id="Path_675" data-name="Path 675" d="M17468.123,3995.631s-2.645,8.777,2.082,11.678C17470.205,4007.309,17473.729,3999.236,17468.123,3995.631Z" transform="translate(-17425.412 -3917.771)" fill="current"/>
    <path id="Path_676" data-name="Path 676" d="M21071.885-7.06C21071-5.311,21069,.185,21073.857,7.7c0,0,5.637-9.186-.871-14.761Z" transform="translate(-20958.658 7.06)" fill="current"/>
    <path id="Path_677" data-name="Path 677" d="M19634.643,1233.36a33.859,33.859,0,0,0-27.129,17.363c-12.066,20.856-20.32,26.625-20.32,26.625" transform="translate(-19503.992 -1209.231)" fill="none"/>
    <path id="Path_678" data-name="Path 678" d="M19991.342,2298.35s-3.043,19.108-10.691,33.357" transform="translate(-19889.795 -2253.506)" fill="none"/>
    <path id="Path_679" data-name="Path 679" d="M19579.322,3874.1a9,9,0,0,1-4.25,8.526l-5.109,3.426S19573.162,3873.607,19579.322,3874.1Z" transform="translate(-19487.094 -3798.586)" fill="current"/>
    <path id="Path_680" data-name="Path 680" d="M19208.127,3406.877s-.613,4.646-4.383,5.62-5.152,3.025-5.152,3.025S19203.83,3406.293,19208.127,3406.877Z" transform="translate(-19122.951 -3340.444)" fill="current"/>
    <path id="Path_681" data-name="Path 681" d="M19808.59,2994.23s.988,5.1-1.332,8.265a37.966,37.966,0,0,0-3.594,5.924S19804.023,2998.195,19808.59,2994.23Z" transform="translate(-19716.252 -2935.849)" fill="current"/>
    <path id="Path_682" data-name="Path 682" d="M19757.836,2592.318s-3.09,4.37-6.633,4.316-4.859,1.487-4.859,1.487S19750.609,2590.788,19757.836,2592.318Z" transform="translate(-19660.045 -2541.549)" fill="current"/>
    <path id="Path_683" data-name="Path 683" d="M20281.611,3239.03s-1.062,3.277.52,5.818a3.937,3.937,0,0,1,.184,4.426S20287.24,3242.845,20281.611,3239.03Z" transform="translate(-20184.559 -3175.888)" fill="current"/>
    <path id="Path_684" data-name="Path 684" d="M20451.074,2674.23a8.774,8.774,0,0,0,3.582,8.078S20456.844,2677.106,20451.074,2674.23Z" transform="translate(-20351.016 -2622.074)" fill="current"/>
    <path id="Path_685" data-name="Path 685" d="M20235.674,1905.054a17.9,17.9,0,0,1-5.82,3.621c-3.582,1.371-4.57,2.99-4.57,2.99S20228.447,1902.207,20235.674,1905.054Z" transform="translate(-20129.67 -1867.336)" fill="current"/>
    <path id="Path_686" data-name="Path 686" d="M20639.559,2106.01a5,5,0,0,0,1.156,4.636c1.961,2.111,1.5,2.877,1.5,2.877S20644.047,2108.386,20639.559,2106.01Z" transform="translate(-20535.729 -2064.907)" fill="current"/>
    <path id="Path_687" data-name="Path 687" d="M20921.451,1557.48a61.786,61.786,0,0,0-1.062,6.52,9.759,9.759,0,0,1-2.461,5.313S20914.791,1562.714,20921.451,1557.48Z" transform="translate(-20808.115 -1527.047)" fill="current"/>
    <path id="Path_688" data-name="Path 688" d="M20531.529,1390.8s-5.82,4.322-9.77,3.871-5.578.912-5.578.912S20524.869,1386.45,20531.529,1390.8Z" transform="translate(-20414.908 -1362.459)" fill="current"/>
    <path id="Path_689" data-name="Path 689" d="M21507.6,1230.1c-.746.966-3.508,4.3-5.828,4.97a14.925,14.925,0,0,0-4.465,2.087s5.367-7.9,10.293-7.347Z" transform="translate(-21376.949 -1205.72)" fill="current"/>
    <path id="Path_690" data-name="Path 690" d="M16403.842-7.06c-7.41,10.73-22.3,26.544-48.781,33.713" transform="translate(-16334.729 7.06)" fill="none"/>
    <path id="Path_691" data-name="Path 691" d="M15489.438,1610.958s-4.7-2.966-8.445-.662-11.328,2.43-11.328,2.43S15483.246,1621.86,15489.438,1610.958Z" transform="translate(-15466.559 -1577.977)" fill="current"/>
    <path id="Path_692" data-name="Path 692" d="M16194.973,1172.42s-6.785,2.691-11.766.2a22.628,22.628,0,0,0-10.586-2.052S16187.965,1165.814,16194.973,1172.42Z" transform="translate(-16155.841 -1146.037)" fill="current"/>
    <path id="Path_693" data-name="Path 693" d="M16431.619,1555.15a8.291,8.291,0,0,0-4.258,6.5,6.249,6.249,0,0,1-4.469,5.59S16434.35,1566.532,16431.619,1555.15Z" transform="translate(-16401.244 -1524.762)" fill="current"/>
    <path id="Path_694" data-name="Path 694" d="M17033.691,771.5s-5.891,3.582-10,2.133a39.966,39.966,0,0,0-8.758-1.816S17028.242,764.425,17033.691,771.5Z" transform="translate(-16981.762 -753.349)" fill="current"/>
    <path id="Path_695" data-name="Path 695" d="M17411.953,1180.04s-5.562,2.83-3.664,13.539C17408.289,1193.579,17417.867,1187.935,17411.953,1180.04Z" transform="translate(-17367.09 -1156.949)" fill="current"/>
    <path id="Path_696" data-name="Path 696" d="M18128.3,438.267s-3.6,1.4-6.059-.875C18122.238,437.392,18127.742,435.366,18128.3,438.267Z" transform="translate(-18067.531 -428.072)" fill="current"/>
  </g>
</svg>
