<svg xmlns="http://www.w3.org/2000/svg" width="56.42" height="69.854" viewBox="0 0 56.42 69.854">
  <g id="Group_898" data-name="Group 898" transform="translate(0)">
    <path id="Path_627" data-name="Path 627" d="M3543.66-7.06c2.125,4.708,4.666,10.024,7.226,14.657,6.388,11.558,5.934,16.262,5.934,16.262" transform="translate(-3512.804 7.06)" fill="none"/>
    <path id="Path_628" data-name="Path 628" d="M3762.9,465.45s9.5,2.961,18.076,15.348" transform="translate(-3729.514 -459.998)" fill="none"/>
    <path id="Path_629" data-name="Path 629" d="M5230.012,1691.07a6.332,6.332,0,0,1,4.244,6.948S5228.366,1694.79,5230.012,1691.07Z" transform="translate(-5179.409 -1671.474)" fill="current"/>
    <path id="Path_630" data-name="Path 630" d="M4571.024,1028.49s2.364,2.626,2.328,5.376,1.941,6.047,1.941,6.047S4567.291,1033.775,4571.024,1028.49Z" transform="translate(-4527.332 -1016.54)" fill="current"/>
    <path id="Path_631" data-name="Path 631" d="M4522.246,2374.12s3.649,2.249,2.606,5.732a10.417,10.417,0,0,0,.252,6.507S4517.879,2379.78,4522.246,2374.12Z" transform="translate(-4478.711 -2346.642)" fill="current"/>
    <path id="Path_632" data-name="Path 632" d="M4399.95,1714.78a17.089,17.089,0,0,1,5.371,5.222c1.712,3.04,2.722,4.668,2.722,4.668S4401.8,1720.059,4399.95,1714.78Z" transform="translate(-4359.213 -1694.911)" fill="current"/>
    <path id="Path_633" data-name="Path 633" d="M4015.9,1353.29s2.638,3.5.572,6.828a9.634,9.634,0,0,0-.957,7.125S4010.8,1358.912,4015.9,1353.29Z" transform="translate(-3977.253 -1337.592)" fill="current"/>
    <path id="Path_634" data-name="Path 634" d="M4094.779,634.82s3.886,1.958,2.988,6.01C4097.767,640.83,4093.393,638.39,4094.779,634.82Z" transform="translate(-4057.296 -627.413)" fill="current"/>
    <path id="Path_635" data-name="Path 635" d="M4923.04,1210.066s2.56,2.11,4.818,1.726,2.236-.082,2.236-.082S4925.779,1207.268,4923.04,1210.066Z" transform="translate(-4876.267 -1195.106)" fill="current"/>
    <path id="Path_636" data-name="Path 636" d="M3741.918,808.39a5.064,5.064,0,0,1,.339,6.155c-2.262,3.2-1.461,4.774-1.461,4.774S3737.726,811.746,3741.918,808.39Z" transform="translate(-3706.594 -798.98)" fill="current"/>
    <path id="Path_637" data-name="Path 637" d="M3305.408,117.3s1.634,2.308-.946,5.543-1.249,4.569-1.249,4.569S3299.271,121.207,3305.408,117.3Z" transform="translate(-3273.9 -115.865)" fill="current"/>
    <path id="Path_638" data-name="Path 638" d="M3574.739-7.06a5.906,5.906,0,0,1,.7.855,39.1,39.1,0,0,0,3.354,4.246,22.827,22.827,0,0,1-6.442-5.1h2.389Z" transform="translate(-3541.163 7.06)" fill="current"/>
    <path id="Path_639" data-name="Path 639" d="M3071.675-7.06a4.3,4.3,0,0,0-.746,3.4,19.815,19.815,0,0,1-.389-3.4Z" transform="translate(-3045.144 7.06)" fill="current"/>
    <path id="Path_640" data-name="Path 640" d="M2600.8-7.06a32.723,32.723,0,0,0,3.138,31.228c12.786,19.453,14.194,29.082,14.194,29.082" transform="translate(-2578.271 7.06)" fill="none"/>
    <path id="Path_641" data-name="Path 641" d="M3270.2,2973.63s15.189,10.891,24.183,23.671" transform="translate(-3242.5 -2939.234)" fill="none"/>
    <path id="Path_642" data-name="Path 642" d="M5162.065,4821.62a8.683,8.683,0,0,1,5.522,7.363l.748,5.891S5158.978,4826.728,5162.065,4821.62Z" transform="translate(-5111.916 -4765.899)" fill="current"/>
    <path id="Path_643" data-name="Path 643" d="M4222.771,5008.451s3.749,2.54,2.958,6.216.381,5.761.381,5.761S4220.409,5011.906,4222.771,5008.451Z" transform="translate(-4183.512 -4950.574)" fill="current"/>
    <path id="Path_644" data-name="Path 644" d="M3938.09,4170.04s4.836,1.354,6.561,4.731a36.573,36.573,0,0,0,3.56,5.669S3939.536,4175.7,3938.09,4170.04Z" transform="translate(-3902.682 -4121.838)" fill="current"/>
    <path id="Path_645" data-name="Path 645" d="M3404.283,3476.69s2.436,4.56.859,7.589-.823,4.848-.823,4.848S3399.836,3482.264,3404.283,3476.69Z" transform="translate(-3373.092 -3436.489)" fill="current"/>
    <path id="Path_646" data-name="Path 646" d="M4471.24,3924.357s2.369,2.338,5.252,2.067a3.811,3.811,0,0,1,3.9,1.765S4476.971,3921.147,4471.24,3924.357Z" transform="translate(-4429.681 -3878.161)" fill="current"/>
    <path id="Path_647" data-name="Path 647" d="M3761.81,3224.863a8.482,8.482,0,0,0,8.528.4S3766.793,3221.124,3761.81,3224.863Z" transform="translate(-3728.437 -3186.022)" fill="current"/>
    <path id="Path_648" data-name="Path 648" d="M2715.668,2371.93a17.337,17.337,0,0,1,.608,6.594c-.37,3.69.6,5.247.6,5.247S2710.084,2376.933,2715.668,2371.93Z" transform="translate(-2692.19 -2344.477)" fill="current"/>
    <path id="Path_649" data-name="Path 649" d="M3075.98,2571.563a4.822,4.822,0,0,0,4.506,1.005c2.669-.774,3.133-.046,3.133-.046S3079.975,2568.715,3075.98,2571.563Z" transform="translate(-3050.521 -2540.762)" fill="current"/>
    <path id="Path_650" data-name="Path 650" d="M2634.09,1550.24a59.271,59.271,0,0,0,5.168,3.746,9.421,9.421,0,0,1,3.525,4.421S2635.725,1558.263,2634.09,1550.24Z" transform="translate(-2613.731 -1532.27)" fill="current"/>
    <path id="Path_651" data-name="Path 651" d="M2277.007,1226.22s1.212,6.9-.886,10.114-1.627,5.211-1.627,5.211S2270.366,1230.083,2277.007,1226.22Z" transform="translate(-2257.031 -1211.989)" fill="current"/>
    <path id="Path_652" data-name="Path 652" d="M2739.1,2.11s2.413,4.774,1.908,7.476a14.442,14.442,0,0,0-.129,4.757s-4.621-8.28-1.779-12.234Z" transform="translate(-2716.614 -2.004)" fill="current"/>
    <path id="Path_653" data-name="Path 653" d="M962.02-7.06c4.011,7.345,8.785,20.476,5.228,37.752" transform="translate(-960.955 7.06)" fill="none"/>
    <path id="Path_654" data-name="Path 654" d="M1039.34,3119.29s-3.06,1.835-2.826,4.652-1.884,7.2-1.884,7.2S1043.8,3125.995,1039.34,3119.29Z" transform="translate(-1032.728 -3083.214)" fill="current"/>
    <path id="Path_655" data-name="Path 655" d="M877.262,2146.4s-.421,4.67-3.291,6.8a14.542,14.542,0,0,0-4.242,5.476S871.448,2148.5,877.262,2146.4Z" transform="translate(-869.73 -2121.55)" fill="current"/>
    <path id="Path_656" data-name="Path 656" d="M1501.84,2681.85a5.33,5.33,0,0,0,2.492,4.321,4.01,4.01,0,0,1,1.911,4.181S1509.156,2683.576,1501.84,2681.85Z" transform="translate(-1494.546 -2650.821)" fill="current"/>
    <path id="Path_657" data-name="Path 657" d="M984.155,1304.39s.348,4.415-1.673,6.354a25.619,25.619,0,0,0-3.575,4.494S978.524,1305.468,984.155,1304.39Z" transform="translate(-977.642 -1289.256)" fill="current"/>
    <path id="Path_658" data-name="Path 658" d="M1502.61,1769.279s.013,4.007,6.7,6.014C1509.312,1775.293,1508.847,1768.173,1502.61,1769.279Z" transform="translate(-1495.307 -1748.666)" fill="current"/>
    <path id="Path_659" data-name="Path 659" d="M1067.543,661.848s-.239,2.467-2.253,3.218C1065.29,665.066,1065.721,661.322,1067.543,661.848Z" transform="translate(-1063.033 -654.079)" fill="current"/>
    <path id="Path_711" data-name="Path 711" d="M2214.7,3163.063a1.132,1.132,0,1,1-.4-1.548A1.132,1.132,0,0,1,2214.7,3163.063Z" transform="translate(-2197.091 -3124.797)" fill="current"/>
    <path id="Path_712" data-name="Path 712" d="M2506.78,3816.49a.442.442,0,1,1-.158-.605A.442.442,0,0,1,2506.78,3816.49Z" transform="translate(-2487.075 -3771.709)" fill="current"/>
    <path id="Path_713" data-name="Path 713" d="M2510.217,3325.293a.442.442,0,1,1-.158-.605A.442.442,0,0,1,2510.217,3325.293Z" transform="translate(-2490.472 -3286.181)" fill="current"/>
    <path id="Path_714" data-name="Path 714" d="M2098.447,2997.791a.442.442,0,1,1-.158-.6A.442.442,0,0,1,2098.447,2997.791Z" transform="translate(-2083.454 -2962.458)" fill="current"/>
    <path id="Path_715" data-name="Path 715" d="M2060.123,3657.492a.442.442,0,1,1-.158-.605A.442.442,0,0,1,2060.123,3657.492Z" transform="translate(-2045.572 -3614.546)" fill="current"/>
    <path id="Path_716" data-name="Path 716" d="M2703.105,3632.9a.442.442,0,1,1-.158-.6A.443.443,0,0,1,2703.105,3632.9Z" transform="translate(-2681.135 -3590.24)" fill="current"/>
    <path id="Path_717" data-name="Path 717" d="M2560.707,2865.4a.443.443,0,1,1-.158-.6A.443.443,0,0,1,2560.707,2865.4Z" transform="translate(-2540.379 -2831.597)" fill="current"/>
    <path id="Path_718" data-name="Path 718" d="M2041.064,3458.8a.291.291,0,1,1-.1-.4A.292.292,0,0,1,2041.064,3458.8Z" transform="translate(-2027.011 -3418.375)" fill="current"/>
    <path id="Path_719" data-name="Path 719" d="M2360.855,3736.413a.291.291,0,1,1-.1-.4A.29.29,0,0,1,2360.855,3736.413Z" transform="translate(-2343.113 -3692.781)" fill="current"/>
    <path id="Path_720" data-name="Path 720" d="M2054.3,3250.673a.344.344,0,1,1-.123-.47A.343.343,0,0,1,2054.3,3250.673Z" transform="translate(-2039.993 -3212.57)" fill="current"/>
    <path id="Path_721" data-name="Path 721" d="M2668.729,3438.563a.291.291,0,1,1-.1-.4A.292.292,0,0,1,2668.729,3438.563Z" transform="translate(-2647.433 -3398.369)" fill="current"/>
    <path id="Path_722" data-name="Path 722" d="M2748.772,3284.928a.291.291,0,1,1-.1-.4A.291.291,0,0,1,2748.772,3284.928Z" transform="translate(-2726.553 -3246.507)" fill="current"/>
    <path id="Path_723" data-name="Path 723" d="M2248.1,2839.925a.291.291,0,1,1-.1-.4A.291.291,0,0,1,2248.1,2839.925Z" transform="translate(-2231.654 -2806.638)" fill="current"/>
    <path id="Path_724" data-name="Path 724" d="M2191.689,3813.546a.291.291,0,1,1-.1-.4A.291.291,0,0,1,2191.689,3813.546Z" transform="translate(-2175.899 -3769.025)" fill="current"/>
    <path id="Path_725" data-name="Path 725" d="M2349.27,3974.446a.291.291,0,1,1-.1-.4A.291.291,0,0,1,2349.27,3974.446Z" transform="translate(-2331.66 -3928.068)" fill="current"/>
    <path id="Path_726" data-name="Path 726" d="M2033.767,3839.617a.176.176,0,1,1-.063-.241A.176.176,0,0,1,2033.767,3839.617Z" transform="translate(-2020.011 -3794.967)" fill="current"/>
    <path id="Path_727" data-name="Path 727" d="M2501.42,3526.09a.636.636,0,1,1-.228-.871A.637.637,0,0,1,2501.42,3526.09Z" transform="translate(-2481.42 -3484.372)" fill="current"/>
    <path id="Path_728" data-name="Path 728" d="M2544.248,3107.157a.636.636,0,1,1-.227-.871A.635.635,0,0,1,2544.248,3107.157Z" transform="translate(-2523.753 -3070.273)" fill="current"/>
    <path id="Path_729" data-name="Path 729" d="M2203.566,3482.589a.816.816,0,1,1-.292-1.117A.816.816,0,0,1,2203.566,3482.589Z" transform="translate(-2186.672 -3441.105)" fill="current"/>
    <path id="Path_730" data-name="Path 730" d="M2361.83,2965.946a.816.816,0,1,1-.292-1.117A.817.817,0,0,1,2361.83,2965.946Z" transform="translate(-2343.109 -2930.424)" fill="current"/>
  </g>
</svg>
