<svg id="Group_45508" data-name="Group 45508" xmlns="http://www.w3.org/2000/svg" width="290.93" height="239.754" viewBox="0 0 290.93 239.754">
  <path id="Path_32707" data-name="Path 32707" d="M2049.489,10844.555c-15.456-43.889-.28-95.949,34.195-127.207s85.656-41.542,130.568-29.366c55.707,15.092,102.1,69.375,96.192,126.78-3.456,33.581-23.917,64.237-51.665,83.461C2193.631,10943.364,2078.394,10926.639,2049.489,10844.555Z" transform="translate(-2031.733 -10683.003)" fill="#fff5ec"/>
  <g id="Group_45286" data-name="Group 45286" transform="translate(0 49.984)">
    <path id="Path_32708" data-name="Path 32708" d="M2348.058,11555.905a16.828,16.828,0,1,1-16.828-16.827A16.831,16.831,0,0,1,2348.058,11555.905Z" transform="translate(-2286.868 -11539.078)" fill="#d8b799"/>
    <path id="Path_32709" data-name="Path 32709" d="M1930.2,12225.755l-21.2-26.574a25.166,25.166,0,0,0-4.284-5.762,24.343,24.343,0,0,0-38.347,4.866l-21.91,27.47a7.222,7.222,0,0,0,1.142,10.156l1.2.96a7.235,7.235,0,0,0,10.164-1.144l5.572-6.988v75.95a10.528,10.528,0,0,0,10.525,10.523h.5a10.527,10.527,0,0,0,10.525-10.523v-54.5h6.838v54.5a10.527,10.527,0,0,0,10.525,10.523h0a10.527,10.527,0,0,0,10.526-10.523v-76.151l5.729,7.189a7.237,7.237,0,0,0,10.166,1.144l1.194-.96A7.223,7.223,0,0,0,1930.2,12225.755Z" transform="translate(-1842.877 -12148.409)" fill="#d8b799"/>
  </g>
  <g id="Group_45287" data-name="Group 45287" transform="translate(202.032 49.984)">
    <path id="Path_32710" data-name="Path 32710" d="M5808.236,11555.905a16.828,16.828,0,1,1-16.827-16.827A16.829,16.829,0,0,1,5808.236,11555.905Z" transform="translate(-5747.05 -11539.078)" fill="#d8b799"/>
    <path id="Path_32711" data-name="Path 32711" d="M5390.388,12225.755l-21.2-26.574a25.121,25.121,0,0,0-4.281-5.762,24.343,24.343,0,0,0-38.347,4.866l-21.912,27.47a7.224,7.224,0,0,0,1.144,10.156l1.193.96a7.236,7.236,0,0,0,10.165-1.144l5.574-6.988v75.95a10.526,10.526,0,0,0,10.525,10.523h.494a10.529,10.529,0,0,0,10.525-10.523v-54.5h6.834v54.5a10.531,10.531,0,0,0,10.528,10.523h0a10.528,10.528,0,0,0,10.525-10.523v-76.151l5.728,7.189a7.237,7.237,0,0,0,10.165,1.144l1.2-.96A7.222,7.222,0,0,0,5390.388,12225.755Z" transform="translate(-5303.071 -12148.409)" fill="#d8b799"/>
  </g>
  <g id="Group_45288" data-name="Group 45288" transform="translate(103.828 123.562)">
    <line id="Line_15" data-name="Line 15" x2="85.549" transform="translate(0.001 9.465)" fill="none" stroke="#d8b799" stroke-linecap="round" stroke-linejoin="round" stroke-miterlimit="10" stroke-width="2"/>
    <path id="Path_32712" data-name="Path 32712" d="M4866.109,12799.3l14.13,9.463-14.13,9.467" transform="translate(-4793.42 -12799.301)" fill="none" stroke="#d8b799" stroke-linecap="round" stroke-linejoin="round" stroke-miterlimit="10" stroke-width="2"/>
    <path id="Path_32713" data-name="Path 32713" d="M3635.281,12799.3l-14.132,9.463,14.132,9.467" transform="translate(-3621.149 -12799.301)" fill="none" stroke="#d8b799" stroke-linecap="round" stroke-linejoin="round" stroke-miterlimit="10" stroke-width="2"/>
  </g>
  <g id="Group_45272" data-name="Group 45272" transform="translate(126.083 90.113)">
    <text id="_1" data-name="1" transform="translate(-3.285 23.035)" fill="#d8b799" font-size="25" font-family="SegoeUIBlack, Segoe UI"><tspan x="0" y="0">1</tspan></text>
    <text id="m" transform="translate(16.518 23.035)" fill="#d8b799" font-size="25" font-family="SegoeUIBlack, Segoe UI"><tspan x="0" y="0">m</tspan></text>
  </g>
</svg>
