<svg xmlns="http://www.w3.org/2000/svg" width="257.652" height="251.842" viewBox="0 0 257.652 251.842">
  <g id="Group_45506" data-name="Group 45506" transform="translate(0.002)">
    <path id="Path_32673" data-name="Path 32673" d="M7772.417,4003.274c16.565-43.482,61.79-73.416,108.3-74.988s92.214,23.643,118.626,61.946c32.764,47.516,33.1,118.923-8.511,158.917-24.334,23.4-59.76,33.572-93.357,30.319C7818.578,4171.826,7741.435,4084.595,7772.417,4003.274Z" transform="translate(-7765.407 -3928.217)" fill="#fff5ec"/>
    <path id="Path_32674" data-name="Path 32674" d="M8067.61,4647.745c-.409-5.071-.768-10.146-1.015-15.234q-1.185-24.218.036-48.478c.226-4.357.478-13.79,6.763-13.813,2.967-.014,5.2,2.713,6.612,5.023a42.179,42.179,0,0,1,3.907,9.789,92.762,92.762,0,0,1,.854,50.5C8080.466,4640.858,8074.584,4644.841,8067.61,4647.745Zm-139.1,71.17a173.553,173.553,0,0,1-50.4-64.29,167.812,167.812,0,0,1-7.851-20.762c-2.314-7.605-4.771-15.773-4.812-23.771-.036-7.2,3.1-15.826,10.836-17.847,7.929-2.068,15.354,4.364,20.468,9.591a264.6,264.6,0,0,1,31.763,39.958Zm159.311-82.417a96.238,96.238,0,0,0,.413-47.823c-1.621-6.5-3.572-14.663-8.9-19.227a8.505,8.505,0,0,0-13.5,2.521,22.122,22.122,0,0,0-2.158,8.241c-.4,4.07-.459,8.2-.6,12.284q-.441,13.271-.156,26.554c.211,9.981.767,19.949,1.6,29.9-42.006,15.016-117.91-4.516-133.249-8.747a288.456,288.456,0,0,0-29.876-38.089c-5.349-5.75-11.759-12.137-19.917-13.271-7.438-1.033-13.917,3.508-16.979,10.1-3.747,8.051-2.076,17.174-.115,25.461a169.444,169.444,0,0,0,7.126,22.773,175.772,175.772,0,0,0,57,75.738v1.426c26.832,17.578,58.4,32.215,91.193,31.106,33.3-1.129,62.934-33.528,65.835-66.042C8087.1,4671.882,8087.059,4654.077,8087.821,4636.5Z" transform="translate(-7856.613 -4529.845)" fill="#d8b799"/>
    <path id="Path_32675" data-name="Path 32675" d="M9667.905,6110.12c-22.663,0-45.734-5.9-60.78-12.869a3.193,3.193,0,0,1,2.69-5.792c35.8,16.593,97.883,20.59,116.487-15.6a3.2,3.2,0,0,1,5.684,2.924C9719.952,6102.182,9694.2,6110.12,9667.905,6110.12Z" transform="translate(-9502.781 -5946.025)" fill="#f1eeec"/>
    <path id="Path_32676" data-name="Path 32676" d="M9922.535,6805.412c-13.256,0-27.3-2.718-41.727-8.235a3.193,3.193,0,0,1,2.282-5.964c39.1,14.942,75.059,8.126,98.635-18.693a3.2,3.2,0,1,1,4.8,4.217C9969.881,6795.671,9947.622,6805.412,9922.535,6805.412Z" transform="translate(-9760.287 -6602.613)" fill="#f1eeec"/>
  </g>
</svg>
