
<svg xmlns="http://www.w3.org/2000/svg" xml:space="preserve" width="52.2726mm" height="38.2892mm" version="1.1" style="shape-rendering:geometricPrecision; text-rendering:geometricPrecision; image-rendering:optimizeQuality; fill-rule:evenodd; clip-rule:evenodd"
viewBox="0 0 4819.21 3530.03"
 xmlns:xlink="http://www.w3.org/1999/xlink"
 xmlns:xodm="http://www.corel.com/coreldraw/odm/2003">
 <defs>
  <style type="text/css">
   <![CDATA[
    .str0 {stroke:#332D2B;stroke-width:18.44;stroke-miterlimit:22.9256}
    .fil0 {fill:black}
   ]]>
  </style>
 </defs>
 <g id="Layer_x0020_1">
  <metadata id="CorelCorpID_0Corel-Layer"/>
  <g id="_105553187293216">
   <g>
    <path class="fil0" d="M527.41 2515.66c0,-73.65 23.3,-115.9 62.89,-155.49 141.17,-141.17 368.31,-24.03 368.31,133.1 0,78.91 -3.7,113.6 -68.48,177.92 -120.6,119.71 -362.72,42.96 -362.72,-155.52zm-84.01 -1411.19c0,-120.35 105.98,-220 214.63,-214.11 45.72,2.47 55.17,0.62 89.86,16.02 182.38,81.02 163.65,314.95 18.54,386.71 -159.73,78.96 -323.03,-36.6 -323.03,-188.62zm985.61 0c-79.47,0 -163.48,-44.58 -201.44,-117.76 -61.16,-117.88 -3.53,-313.45 207.04,-313.45 213.8,0 291.67,314.39 78.49,408.9 -12.6,5.59 -67.63,22.31 -84.09,22.31zm-1428 -123.21c0,103.35 10.74,203.16 61.77,291.03 91.87,158.17 189.73,184.11 300.9,287.11 61.59,57.06 102.12,111.74 102.12,217.07 0,146.89 -155.89,237.1 -265.65,322.35 -51.16,39.74 -105.03,103.74 -137.38,159.43 -81.1,139.66 -81.26,346.33 -14.13,489.78 25.79,55.09 55.51,100.56 93.13,147.67 122.53,153.43 260.4,229.87 433.31,317.09l62.68 26.91c144.46,60.88 322.19,110.37 500.03,110.37 154.23,0 260.87,-10.12 403.74,-38.67 88.64,-17.71 178.64,-51.26 261.89,-85.31 38.87,-15.89 79.33,-38.52 117.7,-55.9 24.48,-11.08 30.57,-16.9 53.37,-30.63 21.05,-12.67 35.9,-19.77 56.94,-32.66 88.27,-54.09 167.39,-118.09 241.65,-189.56 20.61,-19.83 28.2,-19.21 46.34,-43.26l82.73 -90.88c88.07,-101.06 107.42,-149.81 175.97,-255.23 8.47,-13.03 9.79,-13.72 16.43,-28.37 4.75,-10.47 7.97,-18.33 14.14,-30.65 39.76,-79.32 74.84,-162.39 99.61,-247.6 13.88,-47.75 25.69,-95.21 36.7,-142.49 -22.99,12.16 -54.94,49.46 -71.16,68.85 -14.24,17.04 -17.52,22.87 -33.83,38.97 -66.77,65.96 -127.61,139.39 -191.67,205.93 -8.47,8.8 -7.26,5.81 -16.83,16.77 -12.66,14.51 -20.67,23.27 -35.13,37.68 -26.74,26.65 -88.89,85.09 -102.1,116.3 -8.17,19.31 -10.78,34.65 -17.52,55.29 -36.91,113.15 -102.13,233.53 -189.61,314.39 -63.73,58.93 -128.14,112.44 -209.39,149.01 -227.35,102.34 -469.17,89.26 -708.68,35.09 -56.83,-12.85 -114.26,-36.12 -166.63,-57.36 -136.42,-55.34 -166.89,-266.63 -65.02,-369.27 37.71,-37.99 82.05,-68.4 149.94,-74.05l45.86 -200.55c30.79,-125.24 79.52,-243.43 169.07,-334.94 0.8,-0.82 1.95,-2.01 2.75,-2.84 0.31,-0.33 6.1,-6.93 7.97,-8.83 10.02,-10.16 7.72,-6.99 18.34,-15.27 90.5,-70.54 169.5,-123.03 289.43,-147.36 62.49,-12.68 71.87,-38.41 126.79,-91.6 0.83,-0.8 2.01,-1.96 2.82,-2.78l206.38 -196.82c21.94,-22.03 48.8,-37.61 65.8,-63 -49.62,-23.81 -78.11,-28.86 -119.13,-71.27 -126.85,-131.15 -12.34,-354.34 135.93,-354.34 70.55,0 129.08,10.18 175.15,54.45 29.13,28 64.47,77.36 65.65,130.35 16.81,-4.49 28.94,-17.57 43.16,-29.65 16.1,-13.69 20.13,-20.12 38.48,-34.31l231.96 -204.84c0,-35.69 -51.83,-98.85 -71.72,-129.87 -44.75,-69.82 -95.3,-135.46 -148.33,-198.87 -26.15,-31.27 -107.98,-112.81 -138.35,-136.06 -83.27,-63.75 -145.64,-118.4 -239.69,-174.71 -57.98,-34.72 -118.27,-67.92 -181.03,-93.37 -34.81,-14.11 -65.6,-23.97 -101.76,-38.24 -18.01,-7.1 -30.83,-13.46 -48.66,-18.54 -250,-71.26 -491.55,-98.7 -750.86,-45.14 -66.31,13.7 -131.92,29.37 -190,50.81 -114.39,42.22 -225.61,86.42 -327.01,154.58 -99.24,66.72 -182.69,125.72 -258.62,222.98 -63.08,80.79 -136.76,204.57 -136.76,344.83z"/>
    <path class="fil0" d="M1854.61 1950.06c15.94,23.8 300.75,303.53 351.41,354.21 16.8,16.8 28.9,41.03 57.4,43.4 6.92,-25.92 55.08,-58.63 82.35,-91.25 48.13,-57.58 114.1,-118.66 171.31,-187.1l459.28 -520.71c14.87,-17.7 26.06,-31.19 41.65,-47.95 10.58,-11.38 10.44,-13.54 19.94,-24.86l220.68 -272.12c84.71,-113.53 148.38,-192.91 221.83,-315.77 30.72,-51.4 80.34,-148.85 23.82,-201.1 -68.14,-63.01 -181.7,11.63 -250.8,58.12 -19.2,12.93 -34.46,23.06 -53.75,35.85l-402.9 313.9c-16.87,15.69 -29.97,26.36 -48.66,40.94 -71.98,56.21 -146.05,129.48 -216.78,186.43l-236.03 211.96c-11.25,9.42 -13.61,9.24 -25.01,19.78l-69.34 65.07c-9.4,7.84 -14.11,12.74 -23.02,21.78l-140.05 128.74c-31.21,31.36 -58.41,58.32 -89.51,89.7 -29.48,29.75 -71.76,58.06 -93.82,90.99z"/>
    <path class="fil0" d="M1468.21 2991.66c70.61,0 107.55,0.74 178.55,-11.85 118.19,-20.96 199.66,-63.03 287.92,-137.67 15.14,-12.81 22.14,-15.54 36.24,-30.97 58.22,-63.63 100.01,-138.55 135.66,-217.13 5.67,-12.49 33.62,-98.36 33.62,-111.98l-414.4 -425.6c-82.28,19.18 -153.78,30.12 -230.51,83.09 -13.21,9.12 -26.22,19.58 -38.4,28.8 -78.03,59 -114.91,147.24 -144.8,236 -30.43,90.41 -43.22,217.78 -80.83,299.97 -42.93,93.82 -124.83,62.38 -162.45,95.15 -25.95,22.61 -34.73,56.27 -13.01,89.35 35.98,54.81 323.31,102.84 412.39,102.84z"/>
   </g>
   <rect class="fil0 str0" x="4584.18" y="9.22" width="225.81" height="3511.59" rx="112.91" ry="153"/>
  </g>
 </g>
</svg>
