<svg id="Group_855" data-name="Group 855" xmlns="http://www.w3.org/2000/svg" width="96.289" height="77.141" viewBox="0 0 96.289 77.141">
  <path id="Path_12094" data-name="Path 12094" d="M24470.223,43766.406c-.348-4.1.426-8.547,3.3-11.488,2.693-2.758,6.68-3.691,10.377-4.781a79.645,79.645,0,0,0,18.773-8.285c4.984-3.023,9.781-6.77,12.48-11.937,2.973-5.687,3.066-12.367,3.949-18.719s3.041-13.191,8.494-16.57c4.508-2.8,10.2-2.57,15.482-2.086.5.047,1.016.094,1.516.18v76.664h-73.932A24.011,24.011,0,0,1,24470.223,43766.406Z" transform="translate(-24448.305 -43692.242)" fill="current"/>
  <path id="Path_12096" data-name="Path 12096" d="M16870.82,63274.652l.221.207a24.58,24.58,0,0,1,11.1-6.488,52.608,52.608,0,0,1,13.26-1.9c1.084-.031,2.168-.051,3.254-.051a108.367,108.367,0,0,1,42.18,8.566,29.86,29.86,0,0,1,5.92,3.172,13.757,13.757,0,0,1,2.4,2.164,10,10,0,0,1,1.691,2.688,9.683,9.683,0,0,1,.746,3.734h.607a10.3,10.3,0,0,0-.793-3.969,10.71,10.71,0,0,0-1.793-2.852,16.347,16.347,0,0,0-3.932-3.2,35.928,35.928,0,0,0-4.609-2.3,109.122,109.122,0,0,0-42.418-8.609q-1.638,0-3.271.051a52.848,52.848,0,0,0-13.414,1.926,25.2,25.2,0,0,0-11.375,6.656Zm-5.77,12.09c.225-.836.477-1.664.75-2.469a26.445,26.445,0,0,1,5.24-9.414l-.221-.207-.221-.207a26.965,26.965,0,0,0-5.373,9.633c-.3.867-.566,1.758-.8,2.664Z" transform="translate(-16864.422 -63209.605)" fill="#c9ac91"/>
</svg>
